#!OML:ASF F:\VICON\USERDATA\INSTALL\rory3\rory3.ASF
:FULLY-SPECIFIED
:DEGREES
3081
root 0.623853 16.8128 -0.140789 -8.72081 -2.59798 1.56965
lowerback 1.41394 0.267637 0.252167
upperback 3.24891 0.215232 6.81372
thorax 2.54233 0.0148706 6.96501
lowerneck -12.8476 -11.5584 -15.7701
upperneck 27.3775 -17.1183 13.6073
head 14.1505 -7.6491 5.03779
rclavicle -1.49089e-014 -3.18055e-014
rhumerus 29.0519 -1.41119 -52.1066
rradius 80.8417
rwrist 18.6001
rhand 11.8507 15.1639
rfingers 7.12502
rthumb 36.8795 -10.9316
lclavicle -1.49089e-014 -3.18055e-014
lhumerus 43.813 7.74757 8.34406
lradius 78.9623
lwrist 11.8647
lhand 8.53218 24.5679
lfingers 7.12502
lthumb 33.7329 51.4106
rfemur 0.0403958 4.55416 14.6073
rtibia 30.816
rfoot -25.8181 -4.15478
rtoes -23.713
lfemur 0.866495 -6.41489 -23.2776
ltibia 31.6374
lfoot -22.2167 4.2114
ltoes -14.5968
3082
root 0.66166 16.808 -0.140408 -8.71228 -3.06507 1.81689
lowerback 1.41843 0.27097 0.323476
upperback 3.27279 0.214038 6.95774
thorax 2.5656 0.0125542 7.07944
lowerneck -12.9451 -11.5316 -15.6054
upperneck 27.4545 -17.1342 13.6377
head 14.1935 -7.62895 5.01956
rclavicle -8.84592e-015 3.18055e-015
rhumerus 28.8454 -1.05413 -52.5836
rradius 80.5154
rwrist 18.8758
rhand 11.8969 15.4628
rfingers 7.12502
rthumb 36.9232 -10.6215
lclavicle -8.84592e-015 3.18055e-015
lhumerus 44.1837 8.30246 7.21101
lradius 78.851
lwrist 12.2036
lhand 8.70181 24.5835
lfingers 7.12502
lthumb 33.894 51.3907
rfemur -0.219894 4.71647 14.1889
rtibia 31.0252
rfoot -25.8758 -3.986
rtoes -24.2262
lfemur 0.945791 -6.111 -23.6614
ltibia 31.508
lfoot -22.1269 4.74796
ltoes -16.5137
3083
root 0.698517 16.802 -0.140788 -8.73462 -3.48439 2.06282
lowerback 1.45376 0.186969 0.286617
upperback 3.34086 0.0929019 7.15758
thorax 2.63286 -0.0555456 7.31717
lowerneck -13.1703 -11.4385 -15.4741
upperneck 27.5206 -17.0113 13.6409
head 14.2331 -7.5497 5.0194
rclavicle 4.67144e-015 3.81667e-014
rhumerus 28.8551 -0.481962 -52.9596
rradius 80.276
rwrist 19.0044
rhand 12.0088 15.3366
rfingers 7.12502
rthumb 37.029 -10.7203
lclavicle 4.67144e-015 3.81667e-014
lhumerus 44.3338 8.96734 6.11361
lradius 78.7183
lwrist 12.5487
lhand 9.48344 24.5277
lfingers 7.12502
lthumb 34.6362 51.1679
rfemur -0.421638 4.97241 13.7998
rtibia 31.2145
rfoot -25.9443 -3.77842
rtoes -23.9501
lfemur 1.02577 -5.81545 -24.0312
ltibia 31.3891
lfoot -22.0616 5.10856
ltoes -17.9662
3084
root 0.735423 16.7981 -0.140878 -8.7801 -3.93154 2.25013
lowerback 1.49176 0.129989 0.325313
upperback 3.41251 0.00672939 7.38452
thorax 2.69911 -0.104848 7.54146
lowerneck -13.3328 -11.3616 -15.3764
upperneck 27.6134 -16.9082 13.6156
head 14.275 -7.48819 5.01237
rclavicle -1.4561e-014 2.22639e-014
rhumerus 28.8557 0.0289841 -53.2308
rradius 80.0459
rwrist 19.0943
rhand 11.852 15.2509
rfingers 7.12502
rthumb 36.8807 -10.8443
lclavicle -1.4561e-014 2.22639e-014
lhumerus 44.5048 9.51346 5.04134
lradius 78.5379
lwrist 12.989
lhand 9.94825 24.5005
lfingers 7.12502
lthumb 35.0773 51.0385
rfemur -0.585665 5.32848 13.5055
rtibia 31.3647
rfoot -26.0083 -3.64956
rtoes -23.7115
lfemur 1.12366 -5.45958 -24.3227
ltibia 31.2926
lfoot -22.1505 4.96443
ltoes -16.0579
3085
root 0.771584 16.7979 -0.140666 -8.8329 -4.37247 2.43626
lowerback 1.50976 0.0967185 0.382215
upperback 3.49298 -0.0492355 7.59835
thorax 2.78245 -0.138864 7.74217
lowerneck -13.3218 -11.3166 -15.3493
upperneck 27.5576 -16.8718 13.6995
head 14.2483 -7.4611 5.05007
rclavicle 7.25564e-015 1.59028e-014
rhumerus 28.8116 0.497848 -53.4297
rradius 79.789
rwrist 19.1897
rhand 11.3893 15.1511
rfingers 7.12502
rthumb 36.4428 -11.0554
lclavicle 7.25564e-015 1.59028e-014
lhumerus 44.7607 9.97527 4.03509
lradius 78.3477
lwrist 13.2574
lhand 10.2283 24.4904
lfingers 7.12502
lthumb 35.3429 50.9657
rfemur -0.757219 5.68644 13.2182
rtibia 31.5269
rfoot -26.0476 -3.58607
rtoes -23.92
lfemur 1.25575 -5.08862 -24.6142
ltibia 31.1855
lfoot -22.0969 4.87301
ltoes -14.5073
3086
root 0.80639 16.7952 -0.142574 -8.8507 -4.74103 2.58779
lowerback 1.60395 0.0379134 0.559447
upperback 3.50238 -0.128906 7.71931
thorax 2.75034 -0.176589 7.76988
lowerneck -13.2272 -11.3042 -15.22
upperneck 27.5471 -16.9159 13.7335
head 14.2212 -7.46755 5.03831
rclavicle 2.47984e-014 -3.18055e-014
rhumerus 28.6836 0.863605 -53.7731
rradius 79.534
rwrist 19.5045
rhand 11.0363 15.4653
rfingers 7.12502
rthumb 36.1086 -10.8245
lclavicle 2.47984e-014 -3.18055e-014
lhumerus 45.0454 10.3157 2.93013
lradius 78.1837
lwrist 13.4353
lhand 10.3723 24.5919
lfingers 7.12502
lthumb 35.4793 51.0346
rfemur -0.972863 5.99529 12.965
rtibia 31.7387
rfoot -26.0855 -3.59999
rtoes -24.2623
lfemur 1.33208 -4.77033 -24.8486
ltibia 31.0726
lfoot -22.0165 4.56846
ltoes -12.1559
3087
root 0.842508 16.7877 -0.145362 -8.84447 -5.07729 2.93768
lowerback 1.72966 -0.0345835 0.595953
upperback 3.45557 -0.218855 7.76499
thorax 2.64271 -0.21969 7.79663
lowerneck -13.1747 -11.297 -15.1342
upperneck 27.5894 -16.9398 13.7078
head 14.2198 -7.47384 5.01292
rclavicle 1.73937e-015 0
rhumerus 28.5032 1.23977 -54.1417
rradius 79.2631
rwrist 20.0483
rhand 10.6118 15.9906
rfingers 7.12502
rthumb 35.7064 -10.3975
lclavicle 1.73937e-015 0
lhumerus 45.2426 10.5626 1.78083
lradius 77.995
lwrist 13.3351
lhand 10.624 24.6488
lfingers 7.12502
lthumb 35.7179 51.0341
rfemur -1.25555 6.20361 12.4497
rtibia 32.0037
rfoot -26.1815 -3.51011
rtoes -24.713
lfemur 1.32173 -4.43081 -25.3063
ltibia 30.955
lfoot -22.0977 4.68232
ltoes -12.1305
3088
root 0.878116 16.7766 -0.14685 -8.88157 -5.3732 3.4487
lowerback 1.84096 -0.078247 0.436238
upperback 3.43485 -0.271968 7.7848
thorax 2.56672 -0.249831 7.91068
lowerneck -13.227 -11.3041 -14.9496
upperneck 27.6624 -16.9857 13.6373
head 14.2423 -7.47796 4.94449
rclavicle 8.59744e-015 -6.67916e-014
rhumerus 28.3167 1.58083 -54.3267
rradius 79.1272
rwrist 20.3221
rhand 10.3035 16.2523
rfingers 7.12502
rthumb 35.4142 -10.206
lclavicle 8.59744e-015 -6.67916e-014
lhumerus 45.4881 10.765 0.750438
lradius 77.809
lwrist 12.9481
lhand 10.7634 24.6861
lfingers 7.12502
lthumb 35.85 51.0393
rfemur -1.53559 6.31965 11.7177
rtibia 32.2978
rfoot -26.2757 -3.1787
rtoes -24.1592
lfemur 1.35259 -4.04952 -25.9297
ltibia 30.833
lfoot -22.2177 4.72733
ltoes -12.0619
3089
root 0.909948 16.7707 -0.146698 -8.89128 -5.73512 3.71572
lowerback 1.89339 -0.118106 0.369341
upperback 3.44293 -0.328436 7.94033
thorax 2.5564 -0.283466 8.12006
lowerneck -13.2935 -11.2887 -14.7413
upperneck 27.7231 -16.9924 13.5466
head 14.2498 -7.46435 4.87143
rclavicle 2.51463e-014 -4.77083e-014
rhumerus 28.2291 2.00092 -54.366
rradius 79.1314
rwrist 20.2138
rhand 10.3168 16.0774
rfingers 7.12502
rthumb 35.4267 -10.3779
lclavicle 2.51463e-014 -4.77083e-014
lhumerus 45.6448 10.9739 -0.290341
lradius 77.6331
lwrist 12.5901
lhand 10.7223 24.8214
lfingers 7.12502
lthumb 35.8111 51.1841
rfemur -1.83268 6.50709 11.3115
rtibia 32.6033
rfoot -26.3986 -3.04133
rtoes -24.2431
lfemur 1.39744 -3.61955 -26.2541
ltibia 30.6964
lfoot -22.1951 4.84579
ltoes -12.8882
3090
root 0.940459 16.7685 -0.145055 -8.94505 -6.11066 3.91252
lowerback 1.96071 -0.1927 0.311045
upperback 3.48871 -0.435789 8.17318
thorax 2.58636 -0.3458 8.41075
lowerneck -13.3547 -11.2878 -14.7085
upperneck 27.713 -16.9559 13.4365
head 14.2339 -7.45406 4.82514
rclavicle 1.3244e-014 2.22639e-014
rhumerus 28.3071 2.5045 -54.3298
rradius 79.2024
rwrist 19.963
rhand 10.7235 15.7726
rfingers 7.12502
rthumb 35.8122 -10.5898
lclavicle 1.3244e-014 2.22639e-014
lhumerus 45.645 11.1668 -1.26187
lradius 77.3005
lwrist 12.2688
lhand 10.742 24.6937
lfingers 7.12502
lthumb 35.8297 51.0518
rfemur -2.05153 6.82484 11.026
rtibia 32.8649
rfoot -26.5198 -2.97975
rtoes -24.4771
lfemur 1.52583 -3.25452 -26.522
ltibia 30.5634
lfoot -22.0887 5.24513
ltoes -15.3555
3091
root 0.969959 16.7646 -0.14695 -9.00195 -6.44464 4.18285
lowerback 2.09582 -0.279489 0.17176
upperback 3.51411 -0.554841 8.39768
thorax 2.56069 -0.414809 8.74114
lowerneck -13.5585 -11.3086 -14.7221
upperneck 27.8098 -16.9 13.2142
head 14.2838 -7.444 4.74069
rclavicle -1.35671e-014 1.01778e-013
rhumerus 28.4737 2.96231 -54.295
rradius 79.274
rwrist 19.6489
rhand 11.2372 15.5597
rfingers 7.12502
rthumb 36.2988 -10.6829
lclavicle -1.35671e-014 1.01778e-013
lhumerus 45.573 11.2979 -2.09317
lradius 76.8549
lwrist 11.8872
lhand 10.6472 24.4284
lfingers 7.12502
lthumb 35.7399 50.8084
rfemur -2.26129 7.14952 10.6704
rtibia 33.066
rfoot -26.6294 -2.96697
rtoes -24.7525
lfemur 1.62271 -2.8812 -26.8557
ltibia 30.4351
lfoot -21.8871 5.39308
ltoes -16.4876
3092
root 0.997826 16.7586 -0.150712 -9.057 -6.7694 4.41302
lowerback 2.21678 -0.371884 0.131773
upperback 3.56475 -0.682592 8.56279
thorax 2.5696 -0.485867 8.949
lowerneck -13.6783 -11.2858 -14.6722
upperneck 27.851 -16.8301 13.0896
head 14.2938 -7.41612 4.69212
rclavicle -1.85739e-015 -9.54166e-015
rhumerus 28.6712 3.27801 -54.3006
rradius 79.3263
rwrist 19.1014
rhand 11.9851 15.5201
rfingers 7.12502
rthumb 37.0066 -10.5427
lclavicle -1.85739e-015 -9.54166e-015
lhumerus 45.6416 11.4681 -2.57682
lradius 76.4352
lwrist 11.6108
lhand 10.5688 24.6757
lfingers 7.12502
lthumb 35.6657 51.0737
rfemur -2.45502 7.43541 10.3533
rtibia 33.2267
rfoot -26.702 -2.84831
rtoes -24.416
lfemur 1.68141 -2.44408 -27.1186
ltibia 30.3055
lfoot -21.7589 5.39568
ltoes -16.4436
3093
root 1.02458 16.7541 -0.150996 -9.12855 -7.09296 4.60901
lowerback 2.25617 -0.458377 0.154641
upperback 3.61509 -0.805078 8.67272
thorax 2.62193 -0.552486 9.05866
lowerneck -13.5216 -11.2136 -14.5893
upperneck 27.7363 -16.757 13.1138
head 14.1892 -7.38344 4.70874
rclavicle 4.05893e-014 -7.63333e-014
rhumerus 28.7438 3.58769 -54.3664
rradius 79.3759
rwrist 18.6393
rhand 12.5822 15.5922
rfingers 7.12502
rthumb 37.5712 -10.3224
lclavicle 4.05893e-014 -7.63333e-014
lhumerus 45.8267 11.5438 -2.96046
lradius 76.1002
lwrist 11.4763
lhand 9.7017 25.3213
lfingers 7.12502
lthumb 34.8434 51.9138
rfemur -2.60904 7.73203 10.0809
rtibia 33.3795
rfoot -26.7936 -2.7722
rtoes -24.0562
lfemur 1.78235 -2.01357 -27.3393
ltibia 30.1703
lfoot -21.582 5.81654
ltoes -19.9395
